HIERARCHY
ROOT Root
{
	OFFSET 0.00 0.00 0.00
	CHANNELS 6 Xposition Yposition Zposition Xrotation Yrotation Zrotation
	JOINT L_Femur
	{
		OFFSET 2.78527 0.00000 0.00000
		CHANNELS 3 Xrotation Yrotation Zrotation
		JOINT L_Tibia
		{
			OFFSET 0.00000 -16.41095 0.00000
			CHANNELS 3 Xrotation Yrotation Zrotation
			JOINT L_Foot
			{
				OFFSET 0.00000 -14.21163 0.00000
				CHANNELS 3 Xrotation Yrotation Zrotation
				JOINT L_Toe
				{
					OFFSET 0.00000 -1.60827 6.00215
					CHANNELS 3 Xrotation Yrotation Zrotation
					End Site
					{
						OFFSET 0.00000 0.00000 2.95275
					}
				}
			}
		}
	}
	JOINT R_Femur
	{
		OFFSET -2.78527 0.00000 0.00000
		CHANNELS 3 Xrotation Yrotation Zrotation
		JOINT R_Tibia
		{
			OFFSET 0.00000 -16.41095 0.00000
			CHANNELS 3 Xrotation Yrotation Zrotation
			JOINT R_Foot
			{
				OFFSET 0.00000 -14.21163 0.00000
				CHANNELS 3 Xrotation Yrotation Zrotation
				JOINT R_Toe
				{
					OFFSET 0.00000 -1.60827 6.00215
					CHANNELS 3 Xrotation Yrotation Zrotation
					End Site
					{
						OFFSET 0.00000 0.00000 2.95275
					}
				}
			}
		}
	}
	JOINT LowerBack
	{
		OFFSET 0.00000 0.03937 0.00000
		CHANNELS 3 Xrotation Yrotation Zrotation
		JOINT Thorax
		{
			OFFSET 0.00000 7.01329 0.00000
			CHANNELS 3 Xrotation Yrotation Zrotation
			JOINT Neck
			{
				OFFSET 0.00000 7.25825 0.00000
				CHANNELS 3 Xrotation Yrotation Zrotation
				JOINT Head
				{
					OFFSET 0.00000 5.63334 0.00000
					CHANNELS 3 Xrotation Yrotation Zrotation
					End Site
					{
						OFFSET 0.00000 4.52755 0.00000
					}
				}
			}
			JOINT L_Collar
			{
				OFFSET 0.00000 7.25825 0.00000
				CHANNELS 3 Xrotation Yrotation Zrotation
				JOINT L_Humerus
				{
					OFFSET 6.91821 -0.00003 0.00000
					CHANNELS 3 Xrotation Yrotation Zrotation
					JOINT L_Elbow
					{
						OFFSET 10.34006 -0.00004 0.00000
						CHANNELS 3 Xrotation Yrotation Zrotation
						JOINT L_Wrist
						{
							OFFSET 7.25554 -0.00003 0.00000
							CHANNELS 3 Xrotation Yrotation Zrotation
							JOINT L_Thumb
							{
								OFFSET 0.00000 0.00000 0.00000
								CHANNELS 3 Xrotation Yrotation Zrotation
								End Site
								{
									OFFSET 0.00000 0.00000 3.93700
								}
							}
							JOINT L_Wrist_End
							{
								OFFSET 3.93700 -0.00001 0.00000
								CHANNELS 3 Xrotation Yrotation Zrotation
							}
						}
					}
				}
			}
			JOINT R_Collar
			{
				OFFSET 0.00000 7.25825 0.00000
				CHANNELS 3 Xrotation Yrotation Zrotation
				JOINT R_Humerus
				{
					OFFSET -6.91821 -0.00003 0.00000
					CHANNELS 3 Xrotation Yrotation Zrotation
					JOINT R_Elbow
					{
						OFFSET -10.34006 -0.00004 0.00000
						CHANNELS 3 Xrotation Yrotation Zrotation
						JOINT R_Wrist
						{
							OFFSET -7.25554 -0.00003 0.00000
							CHANNELS 3 Xrotation Yrotation Zrotation
							JOINT R_Thumb
							{
								OFFSET 0.00000 0.00000 0.00000
								CHANNELS 3 Xrotation Yrotation Zrotation
								End Site
								{
									OFFSET 0.00000 0.00000 3.93700
								}
							}
							JOINT R_Wrist_End
							{
								OFFSET -5.39369 -0.00002 0.00000
								CHANNELS 3 Xrotation Yrotation Zrotation
							}
						}
					}
				}
			}
		}
	}
}
MOTION
Frames: 17
Frame Time: 0.033332
 60.9116 30.2830 -61.6903 22.5890 3.1701 -7.3181 -52.4226 7.1174 20.1960 71.3157 -0.0000 0.0000 -21.7038 -6.8051 1.1096 -7.1157 0.0000 -0.0000 -36.0850 -1.5510 6.3038 44.0046 -0.0000 0.0000 -29.4563 8.6403 -0.5349 -9.2700 0.0000 0.0000 -1.5888 -1.0088 -11.5081 12.2272 1.9972 14.9427 -1.1006 -76.1125 -0.4412 -33.7599 53.4547 50.7000 4.1249 18.9095 4.7130 -11.3774 -43.7055 -80.8025 -0.0001 -20.4908 -0.0000 -19.9744 0.7675 -6.2420 -0.0000 0.0000 -0.0000 -0.0000 0.0000 -0.0000 7.5037 3.5674 -7.9587 -43.9726 24.3117 77.4549 -0.0002 44.0112 0.0001 -2.3709 6.2127 -9.5808 -0.0000 -0.0000 0.0000 -0.0000 -0.0000 0.0000
 61.1129 30.4216 -60.9003 22.6356 2.5044 -6.7345 -55.2352 6.6425 18.8893 69.1625 -0.0000 0.0000 -21.2506 -8.3693 0.3577 -7.5403 0.0000 0.0000 -33.7714 0.3282 6.2295 41.7893 -0.0000 0.0000 -29.6635 8.1338 -1.1740 -9.4191 0.0000 0.0000 -1.5778 -0.7731 -11.3933 11.5754 2.0355 14.4201 -1.0774 -76.2058 -0.2294 -34.0185 53.4615 50.2439 4.4532 19.7250 4.9477 -6.8973 -43.7174 -80.8741 -0.0001 -20.9489 -0.0000 -21.0007 0.8318 -7.0678 -0.0000 -0.0000 0.0000 -0.0000 -0.0000 0.0000 6.9999 3.3966 -8.7456 -45.9255 24.8860 77.1911 -0.0002 47.6821 0.0001 -2.1377 6.1937 -9.6114 -0.0000 -0.0000 0.0000 -0.0000 -0.0000 0.0000
 61.3356 30.5208 -60.0537 22.6212 2.1897 -6.2420 -57.8932 6.4618 17.8890 66.0406 -0.0000 0.0000 -19.6698 -9.8570 -0.7185 -7.3553 0.0000 -0.0000 -31.3905 2.0672 5.9960 39.8378 -0.0000 0.0000 -29.9278 7.3721 -1.5957 -9.4206 0.0000 0.0000 -1.4817 -0.4690 -11.2056 10.7903 2.1427 13.7667 -0.9920 -76.2977 0.2883 -33.5233 53.7768 48.7032 4.8400 20.5621 5.1856 -2.9934 -42.9996 -80.8235 -0.0001 -21.3317 -0.0000 -22.4851 0.8577 -7.7672 -0.0000 -0.0000 0.0000 -0.0000 -0.0000 0.0000 6.1926 3.2500 -9.6357 -47.0563 25.4358 76.4363 -0.0003 51.1520 0.0001 -2.4445 6.4725 -9.7349 -0.0000 0.0000 -0.0000 -0.0000 0.0000 -0.0000
 61.5489 30.5766 -59.1167 22.6085 1.9439 -5.9668 -60.3603 6.5570 17.6176 62.1147 -0.0000 0.0000 -15.9408 -11.8196 -1.8389 -7.8267 0.0000 0.0000 -28.6553 3.3574 5.7546 37.5969 -0.0000 0.0000 -30.2743 6.8925 -1.7069 -9.3157 0.0000 0.0000 -1.5359 -0.1445 -11.0403 10.0288 2.2662 13.1249 -1.1674 -76.2621 0.2993 -33.1206 53.9220 47.5827 5.1707 21.4485 5.5526 0.9106 -41.7865 -80.3385 -0.0001 -22.0942 -0.0000 -23.2836 0.8995 -8.3518 -0.0000 0.0000 -0.0000 -0.0000 0.0000 -0.0000 5.5795 3.0260 -10.4858 -48.3549 26.0001 75.8435 -0.0003 54.0440 0.0001 -2.6490 6.6365 -9.6610 -0.0000 0.0000 -0.0000 -0.0000 0.0000 -0.0000
 61.7705 30.6062 -58.1083 22.6978 1.7271 -5.8557 -62.3903 6.7512 17.7076 57.4818 -0.0000 0.0000 -13.7943 -13.2000 -2.4198 -7.9826 0.0000 0.0000 -25.8336 4.0058 5.3867 35.3235 -0.0000 0.0000 -30.3686 6.9260 -1.3727 -9.3111 0.0000 0.0000 -1.6180 0.1810 -10.9201 9.0746 2.4060 12.5416 -1.4971 -76.2240 0.1878 -32.3268 54.1486 46.2591 5.4961 22.4125 6.0680 4.6536 -40.9825 -79.4917 -0.0001 -22.8994 -0.0000 -24.6529 0.5978 -8.4810 -0.0000 -0.0000 0.0000 -0.0000 -0.0000 0.0000 5.1594 2.6705 -11.6265 -49.2588 26.8461 75.3557 -0.0003 56.6866 0.0002 -2.2532 6.4416 -9.5303 -0.0000 0.0000 -0.0000 -0.0000 0.0000 -0.0000
 62.0126 30.6663 -57.0227 22.6507 1.2916 -5.8660 -63.5941 6.9946 18.1567 51.9260 -0.0000 0.0000 -10.4088 -14.1032 -2.9577 -8.3220 0.0000 -0.0000 -22.9264 4.5217 5.0346 33.2159 -0.0000 0.0000 -29.5498 7.3582 -0.6045 -9.4802 0.0000 0.0000 -1.6291 0.4302 -10.7445 8.2717 2.4747 11.7593 -1.6400 -75.6738 0.4005 -31.1243 54.3790 44.7319 5.5547 23.2156 6.7720 7.6705 -38.2813 -79.3212 -0.0001 -23.2446 -0.0000 -25.6764 0.4879 -8.7073 -0.0000 0.0000 -0.0000 -0.0000 0.0000 -0.0000 4.6273 2.5478 -12.2865 -49.8897 28.4712 74.9121 -0.0003 58.5228 0.0002 -2.3178 6.4809 -9.4351 -0.0000 0.0000 -0.0000 -0.0000 0.0000 -0.0000
 62.2786 30.8116 -55.8616 22.6479 0.6735 -6.0982 -64.1037 7.3777 18.9274 45.1441 -0.0000 0.0000 -3.3303 -16.0471 -4.2756 -8.6536 0.0000 0.0000 -20.1840 4.9521 4.7994 31.2974 -0.0000 0.0000 -27.3988 8.1353 0.1694 -10.0331 -0.0000 -0.0000 -1.6105 0.5717 -10.5770 7.5655 2.4878 11.0834 -2.1940 -74.8260 0.1441 -29.7470 54.5297 43.5273 5.7387 23.8253 7.0759 10.2464 -35.4757 -79.0770 -0.0001 -23.2431 -0.0000 -26.6302 0.1684 -8.8930 -0.0000 -0.0000 0.0000 -0.0000 -0.0000 0.0000 4.3439 2.5669 -12.6969 -50.7094 30.1839 75.0858 -0.0004 59.6136 0.0002 -2.1363 6.4297 -9.3092 -0.0000 0.0000 -0.0000 -0.0000 0.0000 -0.0000
 62.5878 31.0264 -54.6102 22.6846 -0.0342 -6.2527 -63.8339 8.1834 19.6307 37.8810 -0.0000 0.0000 3.5244 -18.2525 -5.7859 -9.0321 0.0000 -0.0000 -17.5441 5.0800 4.3338 29.6309 -0.0000 0.0000 -24.2572 9.3549 0.6481 -11.2303 0.0000 0.0000 -1.7312 0.7326 -10.5184 7.2434 2.5106 10.3117 -3.5459 -73.8137 -0.8282 -27.5161 54.5121 42.0788 5.8090 24.2231 7.3962 11.9658 -33.4573 -79.1493 -0.0001 -22.9248 -0.0000 -26.6304 0.0979 -8.8506 -0.0000 -0.0000 0.0000 -0.0000 -0.0000 0.0000 4.2134 2.5200 -13.0531 -51.6852 31.5931 76.2490 -0.0004 59.9916 0.0002 -1.6090 6.2555 -9.3705 -0.0000 0.0000 -0.0000 -0.0000 0.0000 -0.0000
 62.9706 31.2307 -53.2778 22.7188 -0.9594 -6.1324 -63.2003 9.6486 20.2791 31.4276 -0.0000 0.0000 8.7050 -20.6139 -6.8536 -9.1050 0.0000 0.0000 -14.9377 5.3578 3.5553 28.1319 -0.0000 0.0000 -20.6955 10.4518 0.6400 -12.9282 0.0000 0.0000 -1.9608 0.9875 -10.4878 7.2159 2.5911 9.2738 -5.6221 -72.6698 -2.5878 -24.9178 54.3359 40.6769 5.7496 24.4527 7.7520 12.9935 -32.5003 -79.4198 -0.0001 -22.5783 -0.0000 -25.5460 0.4925 -8.9359 -0.0000 0.0000 -0.0000 -0.0000 0.0000 -0.0000 4.0675 2.5742 -13.4132 -52.3943 32.8468 77.9133 -0.0004 59.7137 0.0002 -1.0931 6.1014 -9.4479 -0.0000 0.0000 -0.0000 -0.0000 0.0000 -0.0000
 63.4124 31.3323 -51.8689 22.6676 -2.0427 -5.7328 -62.5071 11.6226 20.9393 26.7944 -0.0000 0.0000 12.8652 -22.8984 -8.1904 -9.2952 0.0000 0.0000 -12.4386 6.2258 2.5986 27.2751 -0.0000 0.0000 -17.5363 10.6905 0.0981 -14.8081 0.0000 0.0000 -2.2547 1.3375 -10.4856 7.5427 2.7396 7.9589 -8.3267 -71.4275 -5.0586 -22.4802 53.9309 39.8325 5.6208 24.6512 8.0819 13.4876 -32.0394 -79.6572 -0.0001 -22.6963 -0.0000 -24.8319 0.9407 -9.1483 -0.0000 0.0000 -0.0000 -0.0000 0.0000 -0.0000 3.7282 2.7848 -13.5940 -52.7185 34.2136 79.5850 -0.0003 58.9086 0.0002 -0.5938 5.7710 -9.5134 -0.0000 0.0000 -0.0000 -0.0000 0.0000 -0.0000
 63.9123 31.2292 -50.4271 22.9630 -2.6978 -5.3966 -62.8446 12.9354 21.2442 25.9587 -0.0000 0.0000 15.6938 -24.8190 -9.1089 -9.2519 0.0000 -0.0000 -10.3776 6.4438 1.4934 27.2381 -0.0000 0.0000 -15.3374 10.6956 0.2093 -16.5190 0.0000 0.0000 -2.3805 1.4684 -10.4623 7.4541 2.7348 6.9407 -9.5217 -70.4795 -5.6177 -20.6209 53.9239 38.1499 5.6872 24.7945 8.2340 13.6044 -32.0598 -79.7602 -0.0001 -23.2842 -0.0000 -25.5138 0.9182 -9.3283 -0.0000 0.0000 -0.0000 -0.0000 0.0000 -0.0000 3.5804 2.8319 -13.8055 -52.8153 35.8641 80.7972 -0.0003 57.9281 0.0002 -0.1142 5.5612 -9.3311 -0.0000 0.0000 -0.0000 -0.0000 0.0000 -0.0000
 64.4248 30.8831 -48.9831 23.5165 -3.2105 -5.4308 -64.4588 13.9755 21.9190 28.5501 -0.0000 0.0000 19.1263 -29.1890 -8.3718 -9.1640 0.0000 0.0000 -8.9055 6.9024 0.7440 28.2326 -0.0000 0.0000 -14.5648 10.4167 0.2211 -17.6965 0.0000 -0.0000 -2.2621 1.5678 -10.5118 7.0074 2.8169 6.6188 -9.5352 -70.4598 -5.3004 -21.4473 53.8973 38.2698 5.4722 24.8457 8.4646 13.2864 -32.0874 -80.0546 -0.0001 -23.8742 -0.0000 -26.1245 0.4892 -9.6513 -0.0000 0.0000 -0.0000 -0.0000 0.0000 -0.0000 3.4446 2.9526 -14.1969 -52.0981 37.2270 81.1565 -0.0003 57.5072 0.0002 0.4853 5.3197 -9.2026 -0.0000 0.0000 -0.0000 -0.0000 0.0000 -0.0000
 65.0195 30.2832 -47.5064 23.7142 -3.5144 -4.9206 -65.6761 14.5574 22.0403 37.5812 -0.0000 0.0000 7.5817 -32.3602 -2.3447 -9.4362 0.0000 0.0000 -7.5106 6.4142 -0.9681 31.0376 -0.0000 0.0000 -15.4672 10.9178 0.8269 -18.6467 0.0000 0.0000 -2.2565 1.6646 -10.4197 7.5534 2.8501 5.5877 -10.7123 -70.2203 -6.5419 -23.4586 52.9750 40.4897 5.5205 24.6690 8.2093 12.1837 -32.0306 -79.9540 -0.0001 -24.7909 -0.0000 -27.3272 0.2278 -9.4567 -0.0000 0.0000 -0.0000 -0.0000 0.0000 -0.0000 3.8859 3.1864 -14.2710 -51.4408 38.5656 80.5439 -0.0003 57.2337 0.0002 1.1514 5.1793 -9.5552 -0.0000 0.0000 -0.0000 -0.0000 0.0000 -0.0000
 65.6115 29.5334 -46.0896 23.7241 -4.0721 -4.3678 -65.4642 14.0197 21.6579 45.4501 -0.0000 0.0000 -5.9715 -30.8299 -2.2841 -8.1986 0.0000 -0.0000 -7.5341 5.3865 -2.8986 36.8300 -0.0000 0.0000 -16.2597 12.2901 2.7310 -20.2348 0.0000 -0.0000 -2.0015 1.7670 -10.4193 8.1684 2.9667 4.6828 -10.7362 -70.2019 -7.0065 -26.7178 51.9751 43.4336 5.2223 24.3025 7.6943 10.5473 -31.9715 -79.6482 -0.0001 -25.2046 -0.0000 -27.9435 0.0088 -9.4581 -0.0000 -0.0000 0.0000 -0.0000 -0.0000 0.0000 3.8927 3.7373 -13.9535 -49.8335 39.7375 79.4353 -0.0003 56.6845 0.0002 0.7493 5.5174 -9.8753 -0.0000 0.0000 -0.0000 -0.0000 0.0000 -0.0000
 66.1060 28.8864 -44.8624 23.7084 -4.3139 -4.2921 -66.1252 13.2487 21.3785 53.0953 -0.0000 0.0000 -13.9953 -28.3278 -2.9181 -7.4136 0.0000 0.0000 -9.8966 5.1452 -3.7956 45.9932 -0.0000 0.0000 -14.7351 12.6037 4.0224 -21.0812 0.0000 0.0000 -1.2490 1.5773 -10.5948 8.8668 2.9470 4.2925 -9.8866 -70.1088 -5.9044 -28.5124 51.3392 44.7374 4.3879 23.6005 6.9434 7.4977 -31.3476 -79.4515 -0.0001 -25.0836 -0.0000 -26.3360 -0.0359 -8.7540 -0.0000 0.0000 -0.0000 -0.0000 0.0000 -0.0000 4.7458 4.2220 -13.2389 -49.0743 39.9942 78.5527 -0.0003 55.1786 0.0002 0.6754 5.9148 -10.3472 -0.0000 0.0000 -0.0000 -0.0000 0.0000 -0.0000
 66.5796 28.4866 -43.9212 25.0493 -4.2947 -3.5154 -68.4736 12.3465 20.7082 59.8815 -0.0000 0.0000 -16.3448 -28.1889 -1.3658 -8.0211 0.0000 -0.0000 -16.2615 5.1263 -4.8160 58.1519 -0.0000 0.0000 -10.7352 11.7852 4.7294 -16.5888 0.0000 0.0000 -1.0955 1.3592 -10.8444 9.8100 2.8348 3.2196 -10.6310 -69.2448 -6.8322 -29.8888 49.0481 47.0314 4.3444 22.5502 5.4610 1.3247 -31.7766 -78.8158 -0.0001 -23.8818 -0.0000 -25.9255 -0.5220 -7.7002 -0.0000 -0.0000 0.0000 -0.0000 -0.0000 0.0000 5.5597 4.3178 -12.7144 -49.0748 38.4046 79.0758 -0.0003 52.3690 0.0001 0.8329 6.0127 -10.9675 -0.0000 0.0000 -0.0000 -0.0000 0.0000 -0.0000
 66.9228 28.2401 -42.9992 25.3906 -4.4359 -3.2757 -69.0382 12.4521 20.8590 64.2600 -0.0000 0.0000 -18.5666 -28.5528 -0.9807 -8.4444 0.0000 0.0000 -22.5992 5.3371 -4.5319 69.3908 -0.0000 0.0000 -5.4861 8.8746 4.3714 -12.2629 0.0000 -0.0000 -0.9349 1.0531 -11.0653 11.3289 2.6330 2.6919 -10.6739 -68.5545 -7.6767 -30.9723 47.9525 48.7614 3.5398 20.9555 4.6908 -5.5033 -30.0204 -79.0091 -0.0001 -22.2253 -0.0000 -24.8363 -1.0080 -6.7388 -0.0000 0.0000 -0.0000 -0.0000 0.0000 -0.0000 5.9240 4.8292 -11.9424 -48.5553 37.0241 80.1257 -0.0002 47.8770 0.0001 1.0220 5.9887 -11.4890 -0.0000 0.0000 -0.0000 -0.0000 0.0000 -0.0000
